<svg width="132" height="43" viewBox="0 0 132 43" fill="none" xmlns="http://www.w3.org/2000/svg">
<path d="M7.38281 26.6426L5.85938 28.166V33H1.62598V10.5H5.85938V22.9658L6.67969 21.9111L10.7373 17.1504H15.8203L10.0928 23.7568L16.3184 33H11.4551L7.38281 26.6426ZM26.8359 33C26.6406 32.6191 26.499 32.1455 26.4111 31.5791C25.3857 32.7217 24.0527 33.293 22.4121 33.293C20.8594 33.293 19.5703 32.8438 18.5449 31.9453C17.5293 31.0469 17.0215 29.9141 17.0215 28.5469C17.0215 26.8672 17.6416 25.5781 18.8818 24.6797C20.1318 23.7812 21.9336 23.3271 24.2871 23.3174H26.2354V22.4092C26.2354 21.6768 26.0449 21.0908 25.6641 20.6514C25.293 20.2119 24.7021 19.9922 23.8916 19.9922C23.1787 19.9922 22.6172 20.1631 22.207 20.5049C21.8066 20.8467 21.6064 21.3154 21.6064 21.9111H17.373C17.373 20.9932 17.6562 20.1436 18.2227 19.3623C18.7891 18.5811 19.5898 17.9707 20.625 17.5312C21.6602 17.082 22.8223 16.8574 24.1113 16.8574C26.0645 16.8574 27.6123 17.3506 28.7549 18.3369C29.9072 19.3135 30.4834 20.6904 30.4834 22.4678V29.3379C30.4932 30.8418 30.7031 31.9795 31.1133 32.751V33H26.8359ZM23.335 30.0557C23.96 30.0557 24.5361 29.9189 25.0635 29.6455C25.5908 29.3623 25.9814 28.9863 26.2354 28.5176V25.793H24.6533C22.5342 25.793 21.4062 26.5254 21.2695 27.9902L21.2549 28.2393C21.2549 28.7666 21.4404 29.2012 21.8115 29.543C22.1826 29.8848 22.6904 30.0557 23.335 30.0557ZM37.6318 17.1504L37.7637 18.9814C38.8965 17.5654 40.415 16.8574 42.3193 16.8574C43.999 16.8574 45.249 17.3506 46.0693 18.3369C46.8896 19.3232 47.3096 20.7979 47.3291 22.7607V33H43.0957V22.8633C43.0957 21.9648 42.9004 21.3154 42.5098 20.915C42.1191 20.5049 41.4697 20.2998 40.5615 20.2998C39.3701 20.2998 38.4766 20.8076 37.8809 21.8232V33H33.6475V17.1504H37.6318ZM64.834 25.2217C64.834 27.7607 64.292 29.7432 63.208 31.1689C62.124 32.585 60.6104 33.293 58.667 33.293C56.9482 33.293 55.5762 32.6338 54.5508 31.3154L54.3604 33H50.5518V10.5H54.7852V18.5713C55.7617 17.4287 57.0459 16.8574 58.6377 16.8574C60.5713 16.8574 62.085 17.5703 63.1787 18.9961C64.2822 20.4121 64.834 22.4092 64.834 24.9873V25.2217ZM60.6006 24.9141C60.6006 23.3125 60.3467 22.1455 59.8389 21.4131C59.3311 20.6709 58.5742 20.2998 57.5684 20.2998C56.2207 20.2998 55.293 20.8516 54.7852 21.9551V28.21C55.3027 29.3232 56.2402 29.8799 57.5977 29.8799C58.9648 29.8799 59.8633 29.2061 60.293 27.8584C60.498 27.2139 60.6006 26.2324 60.6006 24.9141ZM66.7969 24.9287C66.7969 23.3564 67.0996 21.9551 67.7051 20.7246C68.3105 19.4941 69.1797 18.542 70.3125 17.8682C71.4551 17.1943 72.7783 16.8574 74.2822 16.8574C76.4209 16.8574 78.1641 17.5117 79.5117 18.8203C80.8691 20.1289 81.626 21.9062 81.7822 24.1523L81.8115 25.2363C81.8115 27.668 81.1328 29.6211 79.7754 31.0957C78.418 32.5605 76.5967 33.293 74.3115 33.293C72.0264 33.293 70.2002 32.5605 68.833 31.0957C67.4756 29.6309 66.7969 27.6387 66.7969 25.1191V24.9287ZM71.0303 25.2363C71.0303 26.7402 71.3135 27.8926 71.8799 28.6934C72.4463 29.4844 73.2568 29.8799 74.3115 29.8799C75.3369 29.8799 76.1377 29.4893 76.7139 28.708C77.29 27.917 77.5781 26.6572 77.5781 24.9287C77.5781 23.4541 77.29 22.3115 76.7139 21.501C76.1377 20.6904 75.3271 20.2852 74.2822 20.2852C73.2471 20.2852 72.4463 20.6904 71.8799 21.501C71.3135 22.3018 71.0303 23.5469 71.0303 25.2363ZM93.3252 21.1201C92.749 21.042 92.2412 21.0029 91.8018 21.0029C90.2002 21.0029 89.1504 21.5449 88.6523 22.6289V33H84.4189V17.1504H88.418L88.5352 19.04C89.3848 17.585 90.5615 16.8574 92.0654 16.8574C92.5342 16.8574 92.9736 16.9209 93.3838 17.0479L93.3252 21.1201ZM94.1895 24.9287C94.1895 23.3564 94.4922 21.9551 95.0977 20.7246C95.7031 19.4941 96.5723 18.542 97.7051 17.8682C98.8477 17.1943 100.171 16.8574 101.675 16.8574C103.813 16.8574 105.557 17.5117 106.904 18.8203C108.262 20.1289 109.019 21.9062 109.175 24.1523L109.204 25.2363C109.204 27.668 108.525 29.6211 107.168 31.0957C105.811 32.5605 103.989 33.293 101.704 33.293C99.4189 33.293 97.5928 32.5605 96.2256 31.0957C94.8682 29.6309 94.1895 27.6387 94.1895 25.1191V24.9287ZM98.4229 25.2363C98.4229 26.7402 98.7061 27.8926 99.2725 28.6934C99.8389 29.4844 100.649 29.8799 101.704 29.8799C102.729 29.8799 103.53 29.4893 104.106 28.708C104.683 27.917 104.971 26.6572 104.971 24.9287C104.971 23.4541 104.683 22.3115 104.106 21.501C103.53 20.6904 102.72 20.2852 101.675 20.2852C100.64 20.2852 99.8389 20.6904 99.2725 21.501C98.7061 22.3018 98.4229 23.5469 98.4229 25.2363Z" fill="#327AA3" fill-opacity="0.16"/>
<path d="M14.3828 21.6426L12.8594 23.166V28H8.62598V5.5H12.8594V17.9658L13.6797 16.9111L17.7373 12.1504H22.8203L17.0928 18.7568L23.3184 28H18.4551L14.3828 21.6426ZM33.8359 28C33.6406 27.6191 33.499 27.1455 33.4111 26.5791C32.3857 27.7217 31.0527 28.293 29.4121 28.293C27.8594 28.293 26.5703 27.8438 25.5449 26.9453C24.5293 26.0469 24.0215 24.9141 24.0215 23.5469C24.0215 21.8672 24.6416 20.5781 25.8818 19.6797C27.1318 18.7812 28.9336 18.3271 31.2871 18.3174H33.2354V17.4092C33.2354 16.6768 33.0449 16.0908 32.6641 15.6514C32.293 15.2119 31.7021 14.9922 30.8916 14.9922C30.1787 14.9922 29.6172 15.1631 29.207 15.5049C28.8066 15.8467 28.6064 16.3154 28.6064 16.9111H24.373C24.373 15.9932 24.6562 15.1436 25.2227 14.3623C25.7891 13.5811 26.5898 12.9707 27.625 12.5312C28.6602 12.082 29.8223 11.8574 31.1113 11.8574C33.0645 11.8574 34.6123 12.3506 35.7549 13.3369C36.9072 14.3135 37.4834 15.6904 37.4834 17.4678V24.3379C37.4932 25.8418 37.7031 26.9795 38.1133 27.751V28H33.8359ZM30.335 25.0557C30.96 25.0557 31.5361 24.9189 32.0635 24.6455C32.5908 24.3623 32.9814 23.9863 33.2354 23.5176V20.793H31.6533C29.5342 20.793 28.4062 21.5254 28.2695 22.9902L28.2549 23.2393C28.2549 23.7666 28.4404 24.2012 28.8115 24.543C29.1826 24.8848 29.6904 25.0557 30.335 25.0557ZM44.6318 12.1504L44.7637 13.9814C45.8965 12.5654 47.415 11.8574 49.3193 11.8574C50.999 11.8574 52.249 12.3506 53.0693 13.3369C53.8896 14.3232 54.3096 15.7979 54.3291 17.7607V28H50.0957V17.8633C50.0957 16.9648 49.9004 16.3154 49.5098 15.915C49.1191 15.5049 48.4697 15.2998 47.5615 15.2998C46.3701 15.2998 45.4766 15.8076 44.8809 16.8232V28H40.6475V12.1504H44.6318ZM71.834 20.2217C71.834 22.7607 71.292 24.7432 70.208 26.1689C69.124 27.585 67.6104 28.293 65.667 28.293C63.9482 28.293 62.5762 27.6338 61.5508 26.3154L61.3604 28H57.5518V5.5H61.7852V13.5713C62.7617 12.4287 64.0459 11.8574 65.6377 11.8574C67.5713 11.8574 69.085 12.5703 70.1787 13.9961C71.2822 15.4121 71.834 17.4092 71.834 19.9873V20.2217ZM67.6006 19.9141C67.6006 18.3125 67.3467 17.1455 66.8389 16.4131C66.3311 15.6709 65.5742 15.2998 64.5684 15.2998C63.2207 15.2998 62.293 15.8516 61.7852 16.9551V23.21C62.3027 24.3232 63.2402 24.8799 64.5977 24.8799C65.9648 24.8799 66.8633 24.2061 67.293 22.8584C67.498 22.2139 67.6006 21.2324 67.6006 19.9141ZM73.7969 19.9287C73.7969 18.3564 74.0996 16.9551 74.7051 15.7246C75.3105 14.4941 76.1797 13.542 77.3125 12.8682C78.4551 12.1943 79.7783 11.8574 81.2822 11.8574C83.4209 11.8574 85.1641 12.5117 86.5117 13.8203C87.8691 15.1289 88.626 16.9062 88.7822 19.1523L88.8115 20.2363C88.8115 22.668 88.1328 24.6211 86.7754 26.0957C85.418 27.5605 83.5967 28.293 81.3115 28.293C79.0264 28.293 77.2002 27.5605 75.833 26.0957C74.4756 24.6309 73.7969 22.6387 73.7969 20.1191V19.9287ZM78.0303 20.2363C78.0303 21.7402 78.3135 22.8926 78.8799 23.6934C79.4463 24.4844 80.2568 24.8799 81.3115 24.8799C82.3369 24.8799 83.1377 24.4893 83.7139 23.708C84.29 22.917 84.5781 21.6572 84.5781 19.9287C84.5781 18.4541 84.29 17.3115 83.7139 16.501C83.1377 15.6904 82.3271 15.2852 81.2822 15.2852C80.2471 15.2852 79.4463 15.6904 78.8799 16.501C78.3135 17.3018 78.0303 18.5469 78.0303 20.2363ZM100.325 16.1201C99.749 16.042 99.2412 16.0029 98.8018 16.0029C97.2002 16.0029 96.1504 16.5449 95.6523 17.6289V28H91.4189V12.1504H95.418L95.5352 14.04C96.3848 12.585 97.5615 11.8574 99.0654 11.8574C99.5342 11.8574 99.9736 11.9209 100.384 12.0479L100.325 16.1201ZM101.189 19.9287C101.189 18.3564 101.492 16.9551 102.098 15.7246C102.703 14.4941 103.572 13.542 104.705 12.8682C105.848 12.1943 107.171 11.8574 108.675 11.8574C110.813 11.8574 112.557 12.5117 113.904 13.8203C115.262 15.1289 116.019 16.9062 116.175 19.1523L116.204 20.2363C116.204 22.668 115.525 24.6211 114.168 26.0957C112.811 27.5605 110.989 28.293 108.704 28.293C106.419 28.293 104.593 27.5605 103.226 26.0957C101.868 24.6309 101.189 22.6387 101.189 20.1191V19.9287ZM105.423 20.2363C105.423 21.7402 105.706 22.8926 106.272 23.6934C106.839 24.4844 107.649 24.8799 108.704 24.8799C109.729 24.8799 110.53 24.4893 111.106 23.708C111.683 22.917 111.971 21.6572 111.971 19.9287C111.971 18.4541 111.683 17.3115 111.106 16.501C110.53 15.6904 109.72 15.2852 108.675 15.2852C107.64 15.2852 106.839 15.6904 106.272 16.501C105.706 17.3018 105.423 18.5469 105.423 20.2363Z" fill="#327AA3"/>
<g clip-path="url(#clip0)">
<path d="M125.965 35.4605L119.631 37.9372L118.56 37.0141L118.024 36.5525L114.81 33.7833L111.67 32.0114L111.097 31.0512C111.048 30.3864 111.255 29.1342 112.482 29.4441C113.708 29.754 114.704 30.1144 115.049 30.2559L113.108 24.3837L113.034 23.3864L113.458 22.3521L114.954 22.2408L116.747 26.1186L119.701 25.3974L123.229 25.6364L124.873 27.5196L124.984 29.0155L125.631 30.9729L125.318 33.5031L125.965 35.4605Z" fill="white"/>
<path d="M124.51 25.4645C123.159 24.8412 121.655 24.6288 120.184 24.8539C119.092 24.9879 118.019 25.2463 116.985 25.624L115.925 22.8771C115.729 22.4177 115.359 22.0547 114.896 21.8673C114.433 21.68 113.915 21.6836 113.455 21.8773C112.984 22.0431 112.597 22.3886 112.38 22.8384C112.163 23.2882 112.133 23.8056 112.297 24.2775L114.298 29.4603L113.152 28.9615C112.649 28.7442 112.08 28.7331 111.568 28.9306C111.056 29.1281 110.643 29.5185 110.416 30.0178C110.301 30.2653 110.237 30.5333 110.228 30.8059C110.218 31.0785 110.264 31.3503 110.361 31.605C110.542 32.1021 110.913 32.5072 111.392 32.7317L114.911 34.6604C115.31 35.3464 115.833 35.9524 116.453 36.4474C116.915 36.8337 117.437 37.1431 117.997 37.3638L118.381 38.3589C118.435 38.5014 118.54 38.6181 118.677 38.685C118.814 38.752 118.971 38.764 119.116 38.7186L126.325 35.9358C126.463 35.8718 126.571 35.7574 126.628 35.6161C126.684 35.4747 126.684 35.3172 126.627 35.1759L126.087 33.7766C126.638 32.1708 126.596 30.4212 125.97 28.8435L124.769 25.7338C124.717 25.6169 124.625 25.5217 124.51 25.4645V25.4645ZM124.943 29.2696C125.508 30.6348 125.545 32.1613 125.048 33.5525C124.969 33.6898 124.947 33.8521 124.985 34.0057L125.417 35.1252L119.27 37.4978L118.974 36.7308C118.941 36.6458 118.888 36.5702 118.819 36.5106C118.751 36.4509 118.668 36.409 118.58 36.3886C118.068 36.2201 117.596 35.9509 117.19 35.597C116.644 35.1653 116.193 34.6261 115.864 34.0127C115.815 33.9027 115.732 33.8115 115.627 33.7529L111.913 31.7208C111.798 31.6709 111.694 31.5987 111.608 31.5084C111.521 31.4181 111.453 31.3115 111.408 31.1949C111.363 31.0782 111.342 30.9537 111.345 30.8287C111.349 30.7036 111.377 30.5806 111.428 30.4665C111.534 30.2326 111.728 30.0496 111.967 29.9572C112.207 29.8647 112.473 29.8702 112.709 29.9724L114.864 30.9271L115.492 32.5545L116.328 31.6361L113.333 23.8774C113.279 23.6805 113.302 23.4701 113.4 23.2904C113.497 23.1107 113.66 22.9757 113.855 22.9139C114.041 22.8288 114.252 22.8191 114.445 22.8869C114.638 22.9546 114.797 23.0946 114.888 23.2772L117.249 29.3929L118.372 29.2157L117.387 26.6657C117.826 26.5064 118.272 26.3699 118.724 26.2569L119.771 28.9675L120.67 28.8288L119.6 26.056C119.828 26.0154 120.064 25.978 120.309 25.949C120.604 25.9156 120.902 25.8982 121.2 25.8969L122.23 28.5661L123.129 28.4274L122.175 25.9552C122.738 26.0111 123.29 26.1445 123.817 26.3516L124.943 29.2696Z" fill="black"/>
</g>
<defs>
<clipPath id="clip0">
<rect width="20" height="20" fill="white" transform="translate(105.539 23.7416) rotate(-21.1067)"/>
</clipPath>
</defs>
</svg>
