<svg width="157" height="58" viewBox="0 0 157 58" fill="none" xmlns="http://www.w3.org/2000/svg">
<rect y="14" width="130" height="44" rx="5" fill="#DEEAF0"/>
<rect x="11" y="7.24458" width="130" height="44" rx="5" transform="rotate(-3.19461 11 7.24458)" fill="white"/>
<path d="M30.7832 31.8229L29.3471 33.4289L29.6165 38.2553L25.3896 38.4913L24.1358 16.0262L28.3626 15.7903L29.0573 28.2368L29.8175 27.138L33.6035 22.1585L38.6786 21.8753L33.3282 28.7906L40.0592 37.6725L35.2035 37.9435L30.7832 31.8229ZM50.5604 37.0864C50.3442 36.717 50.1764 36.252 50.0571 35.6914C49.097 36.8893 47.7979 37.534 46.1598 37.6254C44.6095 37.7119 43.2974 37.3353 42.2235 36.4954C41.1594 35.6549 40.5892 34.5522 40.5131 33.1871C40.4194 31.51 40.9668 30.1884 42.155 29.2222C43.353 28.2555 45.1266 27.7017 47.476 27.5608L49.4212 27.4523L49.3706 26.5455C49.3297 25.8142 49.107 25.2398 48.7022 24.8222C48.3072 24.4041 47.705 24.2177 46.8958 24.2629C46.184 24.3026 45.6329 24.5045 45.2424 24.8686C44.8617 25.2322 44.6879 25.7114 44.7211 26.3062L40.4943 26.5421C40.4431 25.6255 40.6785 24.7615 41.2005 23.9499C41.7225 23.1383 42.488 22.4842 43.4971 21.9878C44.5056 21.4816 45.6534 21.1925 46.9405 21.1207C48.8905 21.0119 50.4635 21.418 51.6592 22.3391C52.8642 23.25 53.5162 24.5927 53.6153 26.3672L53.9981 33.2267C54.0917 34.7277 54.3647 35.8519 54.8172 36.5994L54.8311 36.848L50.5604 37.0864ZM46.9008 34.3417C47.5248 34.3069 48.0925 34.1383 48.6038 33.8359C49.1145 33.5237 49.4836 33.1266 49.711 32.6444L49.5591 29.924L47.9796 30.0122C45.8637 30.1303 44.7784 30.9244 44.7235 32.3946L44.7227 32.644C44.7521 33.1706 44.9616 33.5941 45.3512 33.9147C45.7407 34.2353 46.2573 34.3776 46.9008 34.3417ZM60.4563 20.6598L60.6899 22.4806C61.7421 21.0037 63.2188 20.2121 65.1202 20.106C66.7972 20.0124 68.0728 20.4352 68.9468 21.3742C69.8208 22.3133 70.3222 23.7622 70.4511 25.721L71.0217 35.9443L66.7949 36.1803L66.23 26.0593C66.18 25.1622 65.9488 24.5247 65.5364 24.1467C65.1235 23.759 64.4637 23.5904 63.5569 23.641C62.3674 23.7074 61.5035 24.2642 60.9653 25.3115L61.5882 36.4709L57.3614 36.7068L56.4781 20.8818L60.4563 20.6598ZM88.0659 27.2026C88.2074 29.7377 87.7768 31.7473 86.7739 33.2312C85.7705 34.7055 84.2987 35.4967 82.3583 35.605C80.6423 35.7008 79.2356 35.1191 78.1383 33.8599L78.0421 35.5525L74.2394 35.7647L72.9855 13.2997L77.2123 13.0638L77.6621 21.1225C78.5735 19.9273 79.8238 19.2853 81.4132 19.1966C83.3438 19.0889 84.8948 19.7163 86.0663 21.0789C87.247 22.4312 87.9092 24.3945 88.0529 26.9686L88.0659 27.2026ZM83.822 27.1314C83.7327 25.5323 83.4142 24.3813 82.8663 23.6783C82.318 22.9656 81.5416 22.6372 80.5373 22.6933C79.1918 22.7684 78.2962 23.371 77.8507 24.5011L78.1993 30.7462C78.7781 31.8289 79.7451 32.3325 81.1005 32.2568C82.4655 32.1806 83.325 31.4578 83.6789 30.0883C83.8478 29.4333 83.8955 28.4477 83.822 27.1314ZM90.0095 26.8007C89.9218 25.2309 90.146 23.8148 90.682 22.5525C91.2179 21.2902 92.0327 20.2911 93.1262 19.5552C94.2294 18.8188 95.5318 18.4086 97.0334 18.3248C99.1687 18.2056 100.946 18.7618 102.364 19.9932C103.792 21.2241 104.647 22.9565 104.928 25.1904L105.018 26.2711C105.153 28.699 104.585 30.6869 103.311 32.2348C102.038 33.7731 100.26 34.6058 97.9786 34.7332C95.6969 34.8605 93.8328 34.231 92.3861 32.8446C90.9492 31.4577 90.1605 29.5064 90.0201 26.9908L90.0095 26.8007ZM94.2534 26.8719C94.3372 28.3735 94.6842 29.5083 95.2944 30.2762C95.904 31.0345 96.7353 31.3842 97.7883 31.3254C98.8121 31.2683 99.5899 30.8336 100.122 30.0215C100.653 29.1996 100.87 27.9257 100.774 26.1999C100.692 24.7276 100.34 23.6028 99.72 22.8256C99.0996 22.0485 98.2677 21.689 97.2244 21.7472C96.1909 21.8049 95.4139 22.2542 94.8936 23.095C94.3726 23.9261 94.1593 25.1851 94.2534 26.8719ZM116.284 21.5197C115.705 21.4738 115.195 21.4631 114.757 21.4876C113.158 21.5768 112.14 22.1765 111.703 23.2865L112.281 33.6415L108.054 33.8774L107.171 18.0524L111.163 17.8296L111.386 19.7098C112.153 18.2096 113.287 17.4176 114.789 17.3338C115.257 17.3077 115.699 17.3466 116.116 17.4505L116.284 21.5197ZM117.359 25.2742C117.272 23.7044 117.496 22.2883 118.032 21.026C118.568 19.7637 119.383 18.7646 120.476 18.0287C121.579 17.2922 122.882 16.8821 124.383 16.7983C126.519 16.6791 128.296 17.2352 129.714 18.4667C131.142 19.6976 131.997 21.43 132.278 23.6639L132.368 24.7446C132.503 27.1724 131.935 29.1604 130.661 30.7083C129.388 32.2465 127.61 33.0793 125.329 33.2067C123.047 33.334 121.183 32.7045 119.736 31.3181C118.299 29.9312 117.51 27.9799 117.37 25.4643L117.359 25.2742ZM121.603 25.3454C121.687 26.847 122.034 27.9817 122.644 28.7497C123.254 29.5079 124.085 29.8577 125.138 29.7989C126.162 29.7417 126.94 29.3071 127.472 28.4949C128.003 27.6731 128.22 26.3992 128.124 24.6734C128.042 23.201 127.69 22.0763 127.07 21.2991C126.45 20.5219 125.618 20.1625 124.574 20.2207C123.541 20.2784 122.764 20.7277 122.244 21.5685C121.723 22.3996 121.509 23.6586 121.603 25.3454Z" fill="#327AA3"/>
<g clip-path="url(#clip0)">
<path d="M151.426 50.921L145.092 53.3977L144.02 52.4746L143.485 52.0131L140.27 49.2439L137.13 47.4719L136.558 46.5118C136.508 45.8469 136.716 44.5947 137.942 44.9046C139.168 45.2145 140.165 45.5749 140.509 45.7164L138.568 39.8442L138.494 38.847L138.919 37.8126L140.415 37.7014L142.207 41.5791L145.162 40.8579L148.689 41.0969L150.333 42.9802L150.445 44.476L151.092 46.4334L150.779 48.9636L151.426 50.921Z" fill="white"/>
<path d="M149.971 40.9251C148.62 40.3017 147.115 40.0893 145.644 40.3144C144.552 40.4485 143.479 40.7068 142.446 41.0845L141.385 38.3376C141.189 37.8783 140.82 37.5152 140.357 37.3279C139.894 37.1405 139.376 37.1441 138.915 37.3378C138.444 37.5036 138.058 37.8492 137.841 38.2989C137.624 38.7487 137.594 39.2661 137.757 39.738L139.758 44.9208L138.613 44.4221C138.109 44.2047 137.54 44.1936 137.029 44.3912C136.517 44.5887 136.103 44.979 135.876 45.4784C135.761 45.7258 135.697 45.9938 135.688 46.2664C135.679 46.5391 135.724 46.8108 135.822 47.0655C136.003 47.5626 136.373 47.9677 136.852 48.1923L140.372 50.1209C140.77 50.8069 141.293 51.4129 141.913 51.908C142.376 52.2942 142.897 52.6036 143.458 52.8243L143.842 53.8194C143.895 53.9619 144.001 54.0787 144.137 54.1456C144.274 54.2125 144.431 54.2245 144.576 54.1791L151.786 51.3963C151.924 51.3323 152.032 51.2179 152.088 51.0766C152.144 50.9353 152.144 50.7777 152.088 50.6365L151.548 49.2371C152.098 47.6314 152.056 45.8818 151.43 44.3041L150.23 41.1944C150.177 41.0774 150.086 40.9823 149.971 40.9251V40.9251ZM150.404 44.7301C150.969 46.0953 151.006 47.6218 150.508 49.013C150.43 49.1504 150.407 49.3126 150.445 49.4662L150.877 50.5857L144.73 52.9584L144.434 52.1913C144.402 52.1064 144.349 52.0307 144.28 51.9711C144.211 51.9114 144.129 51.8696 144.04 51.8492C143.529 51.6807 143.056 51.4115 142.651 51.0575C142.105 50.6259 141.653 50.0866 141.325 49.4732C141.276 49.3632 141.193 49.272 141.087 49.2134L137.373 47.1813C137.258 47.1314 137.155 47.0592 137.068 46.9689C136.982 46.8787 136.914 46.7721 136.869 46.6554C136.824 46.5387 136.802 46.4142 136.806 46.2892C136.809 46.1642 136.838 46.0411 136.889 45.9271C136.995 45.6931 137.188 45.5102 137.428 45.4177C137.667 45.3253 137.934 45.3307 138.169 45.4329L140.324 46.3876L140.952 48.015L141.789 47.0966L138.794 39.3379C138.739 39.141 138.763 38.9306 138.86 38.7509C138.957 38.5712 139.121 38.4362 139.315 38.3744C139.501 38.2893 139.713 38.2796 139.905 38.3474C140.098 38.4152 140.257 38.5551 140.349 38.7377L142.71 44.8535L143.832 44.6762L142.848 42.1263C143.286 41.9669 143.732 41.8305 144.185 41.7174L145.231 44.428L146.13 44.2893L145.06 41.5165C145.289 41.476 145.524 41.4386 145.769 41.4096C146.065 41.3761 146.362 41.3587 146.66 41.3574L147.69 44.0266L148.59 43.8879L147.635 41.4157C148.198 41.4716 148.751 41.6051 149.277 41.8122L150.404 44.7301Z" fill="black"/>
</g>
<defs>
<clipPath id="clip0">
<rect width="20" height="20" fill="white" transform="translate(131 39.2021) rotate(-21.1067)"/>
</clipPath>
</defs>
</svg>
