<svg width="144" height="58" viewBox="0 0 144 58" fill="none" xmlns="http://www.w3.org/2000/svg">
<rect y="14" width="130" height="44" rx="5" fill="#CEBF97" fill-opacity="0.49"/>
<rect x="11" y="7.24457" width="130" height="44" rx="5" transform="rotate(-3.19461 11 7.24457)" fill="white"/>
<path d="M30.7832 31.8229L29.3471 33.4289L29.6165 38.2553L25.3896 38.4912L24.1358 16.0262L28.3626 15.7903L29.0573 28.2367L29.8175 27.138L33.6035 22.1585L38.6786 21.8752L33.3282 28.7906L40.0592 37.6725L35.2035 37.9435L30.7832 31.8229ZM50.5604 37.0864C50.3442 36.717 50.1764 36.252 50.0571 35.6913C49.097 36.8893 47.7979 37.534 46.1598 37.6254C44.6095 37.7119 43.2974 37.3352 42.2235 36.4953C41.1594 35.6549 40.5892 34.5521 40.5131 33.1871C40.4194 31.51 40.9668 30.1884 42.155 29.2222C43.353 28.2555 45.1266 27.7017 47.476 27.5608L49.4212 27.4523L49.3706 26.5455C49.3297 25.8142 49.107 25.2398 48.7022 24.8222C48.3072 24.4041 47.705 24.2177 46.8958 24.2628C46.184 24.3026 45.6329 24.5045 45.2424 24.8686C44.8617 25.2322 44.6879 25.7114 44.7211 26.3061L40.4943 26.5421C40.4431 25.6255 40.6785 24.7614 41.2005 23.9498C41.7225 23.1382 42.488 22.4842 43.4971 21.9878C44.5056 21.4816 45.6534 21.1925 46.9405 21.1207C48.8905 21.0119 50.4635 21.418 51.6592 22.3391C52.8642 23.2499 53.5162 24.5926 53.6153 26.3672L53.9981 33.2267C54.0917 34.7277 54.3647 35.8519 54.8172 36.5994L54.8311 36.848L50.5604 37.0864ZM46.9008 34.3417C47.5248 34.3069 48.0925 34.1382 48.6038 33.8358C49.1145 33.5237 49.4836 33.1265 49.711 32.6444L49.5591 29.924L47.9796 30.0122C45.8637 30.1302 44.7784 30.9244 44.7235 32.3946L44.7227 32.644C44.7521 33.1706 44.9616 33.5941 45.3512 33.9147C45.7407 34.2353 46.2573 34.3776 46.9008 34.3417ZM60.4563 20.6597L60.6899 22.4806C61.7421 21.0037 63.2188 20.2121 65.1202 20.106C66.7972 20.0124 68.0728 20.4351 68.9468 21.3742C69.8208 22.3133 70.3222 23.7622 70.4511 25.721L71.0217 35.9443L66.7949 36.1802L66.23 26.0593C66.18 25.1622 65.9488 24.5247 65.5364 24.1467C65.1235 23.759 64.4637 23.5904 63.5569 23.641C62.3674 23.7074 61.5035 24.2642 60.9653 25.3115L61.5882 36.4708L57.3614 36.7068L56.4781 20.8818L60.4563 20.6597ZM88.0659 27.2026C88.2074 29.7377 87.7768 31.7472 86.7739 33.2312C85.7705 34.7054 84.2987 35.4967 82.3583 35.605C80.6423 35.7008 79.2356 35.1191 78.1383 33.8599L78.0421 35.5525L74.2394 35.7647L72.9855 13.2997L77.2123 13.0638L77.6621 21.1225C78.5735 19.9273 79.8238 19.2853 81.4132 19.1966C83.3438 19.0889 84.8948 19.7163 86.0663 21.0789C87.247 22.4312 87.9092 24.3945 88.0529 26.9686L88.0659 27.2026ZM83.822 27.1314C83.7327 25.5323 83.4142 24.3813 82.8663 23.6783C82.318 22.9655 81.5416 22.6372 80.5373 22.6933C79.1918 22.7684 78.2962 23.371 77.8507 24.5011L78.1993 30.7462C78.7781 31.8289 79.7451 32.3325 81.1005 32.2568C82.4655 32.1806 83.325 31.4578 83.6789 30.0883C83.8478 29.4333 83.8955 28.4477 83.822 27.1314ZM90.0095 26.8007C89.9218 25.2309 90.146 23.8148 90.682 22.5525C91.2179 21.2902 92.0327 20.2911 93.1262 19.5552C94.2294 18.8187 95.5318 18.4086 97.0334 18.3248C99.1687 18.2056 100.946 18.7617 102.364 19.9932C103.792 21.2241 104.647 22.9565 104.928 25.1904L105.018 26.2711C105.153 28.699 104.585 30.6869 103.311 32.2348C102.038 33.773 100.26 34.6058 97.9786 34.7332C95.6969 34.8605 93.8328 34.231 92.3861 32.8446C90.9492 31.4577 90.1605 29.5064 90.0201 26.9908L90.0095 26.8007ZM94.2534 26.8719C94.3372 28.3735 94.6842 29.5082 95.2944 30.2762C95.904 31.0344 96.7353 31.3842 97.7883 31.3254C98.8121 31.2682 99.5899 30.8336 100.122 30.0215C100.653 29.1996 100.87 27.9257 100.774 26.1999C100.692 24.7276 100.34 23.6028 99.72 22.8256C99.0996 22.0484 98.2677 21.689 97.2244 21.7472C96.1909 21.8049 95.4139 22.2542 94.8936 23.095C94.3726 23.9261 94.1593 25.1851 94.2534 26.8719ZM116.284 21.5196C115.705 21.4738 115.195 21.463 114.757 21.4875C113.158 21.5768 112.14 22.1764 111.703 23.2865L112.281 33.6415L108.054 33.8774L107.171 18.0524L111.163 17.8296L111.386 19.7097C112.153 18.2096 113.287 17.4176 114.789 17.3338C115.257 17.3077 115.699 17.3465 116.116 17.4504L116.284 21.5196ZM117.359 25.2742C117.272 23.7043 117.496 22.2883 118.032 21.026C118.568 19.7637 119.383 18.7646 120.476 18.0287C121.579 17.2922 122.882 16.8821 124.383 16.7983C126.519 16.6791 128.296 17.2352 129.714 18.4667C131.142 19.6976 131.997 21.43 132.278 23.6639L132.368 24.7446C132.503 27.1724 131.935 29.1603 130.661 30.7083C129.388 32.2465 127.61 33.0793 125.329 33.2066C123.047 33.334 121.183 32.7045 119.736 31.3181C118.299 29.9312 117.51 27.9799 117.37 25.4643L117.359 25.2742ZM121.603 25.3454C121.687 26.847 122.034 27.9817 122.644 28.7497C123.254 29.5079 124.085 29.8576 125.138 29.7989C126.162 29.7417 126.94 29.3071 127.472 28.4949C128.003 27.673 128.22 26.3992 128.124 24.6733C128.042 23.201 127.69 22.0763 127.07 21.2991C126.45 20.5219 125.618 20.1624 124.574 20.2207C123.541 20.2784 122.764 20.7276 122.244 21.5685C121.723 22.3996 121.509 23.6586 121.603 25.3454Z" fill="#327AA3"/>
</svg>
