<svg width="116" height="46" viewBox="0 0 116 46" fill="none" xmlns="http://www.w3.org/2000/svg">
<path d="M7.38281 32.6426L5.85938 34.166V39H1.62598V16.5H5.85938V28.9658L6.67969 27.9111L10.7373 23.1504H15.8203L10.0928 29.7568L16.3184 39H11.4551L7.38281 32.6426ZM26.8359 39C26.6406 38.6191 26.499 38.1455 26.4111 37.5791C25.3857 38.7217 24.0527 39.293 22.4121 39.293C20.8594 39.293 19.5703 38.8438 18.5449 37.9453C17.5293 37.0469 17.0215 35.9141 17.0215 34.5469C17.0215 32.8672 17.6416 31.5781 18.8818 30.6797C20.1318 29.7812 21.9336 29.3271 24.2871 29.3174H26.2354V28.4092C26.2354 27.6768 26.0449 27.0908 25.6641 26.6514C25.293 26.2119 24.7021 25.9922 23.8916 25.9922C23.1787 25.9922 22.6172 26.1631 22.207 26.5049C21.8066 26.8467 21.6064 27.3154 21.6064 27.9111H17.373C17.373 26.9932 17.6562 26.1436 18.2227 25.3623C18.7891 24.5811 19.5898 23.9707 20.625 23.5312C21.6602 23.082 22.8223 22.8574 24.1113 22.8574C26.0645 22.8574 27.6123 23.3506 28.7549 24.3369C29.9072 25.3135 30.4834 26.6904 30.4834 28.4678V35.3379C30.4932 36.8418 30.7031 37.9795 31.1133 38.751V39H26.8359ZM23.335 36.0557C23.96 36.0557 24.5361 35.9189 25.0635 35.6455C25.5908 35.3623 25.9814 34.9863 26.2354 34.5176V31.793H24.6533C22.5342 31.793 21.4062 32.5254 21.2695 33.9902L21.2549 34.2393C21.2549 34.7666 21.4404 35.2012 21.8115 35.543C22.1826 35.8848 22.6904 36.0557 23.335 36.0557ZM37.6318 23.1504L37.7637 24.9814C38.8965 23.5654 40.415 22.8574 42.3193 22.8574C43.999 22.8574 45.249 23.3506 46.0693 24.3369C46.8896 25.3232 47.3096 26.7979 47.3291 28.7607V39H43.0957V28.8633C43.0957 27.9648 42.9004 27.3154 42.5098 26.915C42.1191 26.5049 41.4697 26.2998 40.5615 26.2998C39.3701 26.2998 38.4766 26.8076 37.8809 27.8232V39H33.6475V23.1504H37.6318ZM64.834 31.2217C64.834 33.7607 64.292 35.7432 63.208 37.1689C62.124 38.585 60.6104 39.293 58.667 39.293C56.9482 39.293 55.5762 38.6338 54.5508 37.3154L54.3604 39H50.5518V16.5H54.7852V24.5713C55.7617 23.4287 57.0459 22.8574 58.6377 22.8574C60.5713 22.8574 62.085 23.5703 63.1787 24.9961C64.2822 26.4121 64.834 28.4092 64.834 30.9873V31.2217ZM60.6006 30.9141C60.6006 29.3125 60.3467 28.1455 59.8389 27.4131C59.3311 26.6709 58.5742 26.2998 57.5684 26.2998C56.2207 26.2998 55.293 26.8516 54.7852 27.9551V34.21C55.3027 35.3232 56.2402 35.8799 57.5977 35.8799C58.9648 35.8799 59.8633 35.2061 60.293 33.8584C60.498 33.2139 60.6006 32.2324 60.6006 30.9141ZM66.7969 30.9287C66.7969 29.3564 67.0996 27.9551 67.7051 26.7246C68.3105 25.4941 69.1797 24.542 70.3125 23.8682C71.4551 23.1943 72.7783 22.8574 74.2822 22.8574C76.4209 22.8574 78.1641 23.5117 79.5117 24.8203C80.8691 26.1289 81.626 27.9062 81.7822 30.1523L81.8115 31.2363C81.8115 33.668 81.1328 35.6211 79.7754 37.0957C78.418 38.5605 76.5967 39.293 74.3115 39.293C72.0264 39.293 70.2002 38.5605 68.833 37.0957C67.4756 35.6309 66.7969 33.6387 66.7969 31.1191V30.9287ZM71.0303 31.2363C71.0303 32.7402 71.3135 33.8926 71.8799 34.6934C72.4463 35.4844 73.2568 35.8799 74.3115 35.8799C75.3369 35.8799 76.1377 35.4893 76.7139 34.708C77.29 33.917 77.5781 32.6572 77.5781 30.9287C77.5781 29.4541 77.29 28.3115 76.7139 27.501C76.1377 26.6904 75.3271 26.2852 74.2822 26.2852C73.2471 26.2852 72.4463 26.6904 71.8799 27.501C71.3135 28.3018 71.0303 29.5469 71.0303 31.2363ZM93.3252 27.1201C92.749 27.042 92.2412 27.0029 91.8018 27.0029C90.2002 27.0029 89.1504 27.5449 88.6523 28.6289V39H84.4189V23.1504H88.418L88.5352 25.04C89.3848 23.585 90.5615 22.8574 92.0654 22.8574C92.5342 22.8574 92.9736 22.9209 93.3838 23.0479L93.3252 27.1201ZM94.1895 30.9287C94.1895 29.3564 94.4922 27.9551 95.0977 26.7246C95.7031 25.4941 96.5723 24.542 97.7051 23.8682C98.8477 23.1943 100.171 22.8574 101.675 22.8574C103.813 22.8574 105.557 23.5117 106.904 24.8203C108.262 26.1289 109.019 27.9062 109.175 30.1523L109.204 31.2363C109.204 33.668 108.525 35.6211 107.168 37.0957C105.811 38.5605 103.989 39.293 101.704 39.293C99.4189 39.293 97.5928 38.5605 96.2256 37.0957C94.8682 35.6309 94.1895 33.6387 94.1895 31.1191V30.9287ZM98.4229 31.2363C98.4229 32.7402 98.7061 33.8926 99.2725 34.6934C99.8389 35.4844 100.649 35.8799 101.704 35.8799C102.729 35.8799 103.53 35.4893 104.106 34.708C104.683 33.917 104.971 32.6572 104.971 30.9287C104.971 29.4541 104.683 28.3115 104.106 27.501C103.53 26.6904 102.72 26.2852 101.675 26.2852C100.64 26.2852 99.8389 26.6904 99.2725 27.501C98.7061 28.3018 98.4229 29.5469 98.4229 31.2363Z" fill="#327AA3" fill-opacity="0.16"/>
<path d="M11.6774 27.8659L10.2489 29.4786L10.541 34.3038L6.31539 34.5596L4.95544 12.1008L9.1811 11.8449L9.93456 24.2879L10.6896 23.1856L14.4521 18.1883L19.5258 17.8811L14.208 24.8216L20.9809 33.6716L16.1265 33.9655L11.6774 27.8659ZM31.4793 33.0359C31.2613 32.6675 31.0913 32.2033 30.9694 31.6433C30.0149 32.8457 28.7189 33.4965 27.0812 33.5957C25.5313 33.6896 24.2175 33.3191 23.1397 32.4843C22.0716 31.6488 21.4962 30.5488 21.4136 29.1841C21.3121 27.5075 21.8531 26.1833 23.0368 25.2115C24.2302 24.2392 26.0012 23.677 28.3499 23.525L30.2945 23.4073L30.2396 22.5007C30.1954 21.7696 29.9699 21.1963 29.5631 20.7807C29.1662 20.3644 28.5631 20.1808 27.7541 20.2298C27.0425 20.2729 26.4923 20.4774 26.1036 20.8434C25.7246 21.2088 25.5531 21.6888 25.5891 22.2834L21.3634 22.5393C21.3079 21.623 21.5393 20.7578 22.0574 19.9437C22.5756 19.1297 23.338 18.472 24.3447 17.9708C25.3508 17.4599 26.4972 17.1654 27.7839 17.0875C29.7335 16.9695 31.3083 17.3682 32.5084 18.2836C33.7177 19.1887 34.376 20.5284 34.4835 22.3025L34.8987 29.16C34.9994 30.6606 35.2777 31.7835 35.7337 32.5288L35.7488 32.7774L31.4793 33.0359ZM27.8067 30.3085C28.4306 30.2708 28.9974 30.0995 29.5073 29.7947C30.0165 29.4801 30.3837 29.0812 30.6088 28.598L30.4442 25.8783L28.865 25.974C26.7498 26.102 25.6682 26.9013 25.6202 28.3717L25.6207 28.6212C25.6525 29.1476 25.864 29.5701 26.2551 29.8889C26.6462 30.2076 27.1634 30.3475 27.8067 30.3085ZM41.2974 16.5627L41.5397 18.3825C42.5849 16.9006 44.0578 16.1021 45.9587 15.987C47.6353 15.8854 48.9128 16.3022 49.7912 17.2371C50.6697 18.172 51.1779 19.6186 51.3161 21.5767L51.935 31.7972L47.7093 32.0531L47.0966 21.9349C47.0423 21.0381 46.8081 20.4017 46.394 20.0257C45.9793 19.6399 45.3187 19.4744 44.4121 19.5293C43.2229 19.6013 42.3617 20.1622 41.8284 21.212L42.504 32.3683L38.2783 32.6242L37.3203 16.8035L41.2974 16.5627ZM68.9377 22.9751C69.0912 25.5095 68.67 27.5211 67.6742 29.0098C66.6777 30.4887 65.2096 31.2869 63.2698 31.4044C61.5542 31.5083 60.1448 30.9332 59.0416 29.6792L58.9534 31.3722L55.1517 31.6024L53.7918 9.14358L58.0174 8.8877L58.5053 16.9442C59.411 15.7447 60.6583 15.0969 62.2472 15.0006C64.1772 14.8838 65.7312 15.5039 66.9092 16.8609C68.0962 18.2077 68.7677 20.1677 68.9235 22.7411L68.9377 22.9751ZM64.6934 22.9239C64.5966 21.3253 64.2727 20.1758 63.7215 19.4754C63.1698 18.7652 62.3919 18.4406 61.3879 18.5014C60.0427 18.5828 59.15 19.1896 58.7098 20.3218L59.0879 26.5653C59.6718 27.6452 60.6412 28.1442 61.9961 28.0622C63.3608 27.9795 64.2169 27.2526 64.5644 25.8815C64.7301 25.2257 64.7731 24.2399 64.6934 22.9239ZM70.8793 22.564C70.7843 20.9946 71.0017 19.5775 71.5317 18.3127C72.0617 17.0479 72.8717 16.045 73.9617 15.3039C75.0615 14.5622 76.362 14.146 77.8631 14.0551C79.9979 13.9258 81.7774 14.4735 83.2017 15.6983C84.6357 16.9224 85.4986 18.6508 85.7903 20.8833L85.8851 21.9635C86.0321 24.3907 85.4726 26.3813 84.2068 27.9353C82.9404 29.4795 81.1667 30.3207 78.8858 30.4588C76.6048 30.5969 74.7377 29.9762 73.2844 28.5967C71.841 27.2165 71.0431 25.269 70.8908 22.7541L70.8793 22.564ZM75.1235 22.6152C75.2144 24.1164 75.5668 25.2495 76.1805 26.0146C76.7937 26.7699 77.6267 27.1157 78.6795 27.0519C79.703 26.99 80.4787 26.5516 81.0066 25.737C81.5339 24.9126 81.7453 23.6377 81.6408 21.9124C81.5517 20.4405 81.1951 19.3174 80.571 18.5431C79.9469 17.7689 79.1133 17.4134 78.0703 17.4765C77.037 17.5391 76.2622 17.992 75.7458 18.8353C75.2289 19.6689 75.0214 20.9288 75.1235 22.6152ZM97.1289 17.159C96.5491 17.1158 96.0398 17.1075 95.6012 17.1341C94.0025 17.2309 92.9874 17.8353 92.5558 18.9474L93.1826 29.2996L88.957 29.5554L87.999 13.7348L91.9907 13.4931L92.2219 15.3722C92.982 13.8684 94.1126 13.0711 95.6138 12.9802C96.0817 12.9519 96.5242 12.9887 96.9413 13.0906L97.1289 17.159ZM98.2218 20.9083C98.1268 19.339 98.3442 17.9218 98.8742 16.657C99.4042 15.3922 100.214 14.3893 101.304 13.6482C102.404 12.9066 103.704 12.4903 105.206 12.3994C107.34 12.2701 109.12 12.8179 110.544 14.0426C111.978 15.2668 112.841 16.9951 113.133 19.2276L113.228 20.3079C113.375 22.7351 112.815 24.7256 111.549 26.2796C110.283 27.8238 108.509 28.665 106.228 28.8031C103.947 28.9412 102.08 28.3205 100.627 26.941C99.1835 25.5609 98.3856 23.6133 98.2333 21.0984L98.2218 20.9083ZM102.466 20.9595C102.557 22.4607 102.909 23.5938 103.523 24.3589C104.136 25.1142 104.969 25.46 106.022 25.3963C107.045 25.3343 107.821 24.896 108.349 24.0813C108.876 23.2569 109.088 21.9821 108.983 20.2567C108.894 18.7848 108.538 17.6617 107.913 16.8875C107.289 16.1132 106.456 15.7577 105.413 15.8208C104.38 15.8834 103.605 16.3363 103.088 17.1796C102.571 18.0132 102.364 19.2732 102.466 20.9595Z" fill="#327AA3"/>
</svg>
