<svg width="142" height="169" viewBox="0 0 142 169" fill="none" xmlns="http://www.w3.org/2000/svg">
<path d="M47.1953 106.664L40.5156 113.344V135H16.8203V26.9297H40.5156V84.3047L42.9062 81.1406L60.7656 58.9219H89.1719L62.5234 90.2109L90.9297 135H63.7891L47.1953 106.664ZM103.006 135C102.046 135 101.182 134.664 100.414 133.992C99.742 133.224 99.406 132.36 99.406 131.4V113.112C99.406 112.056 99.742 111.192 100.414 110.52C101.182 109.848 102.046 109.512 103.006 109.512H121.294C122.35 109.512 123.214 109.848 123.886 110.52C124.558 111.192 124.894 112.056 124.894 113.112V131.4C124.894 132.36 124.558 133.224 123.886 133.992C123.214 134.664 122.35 135 121.294 135H103.006Z" fill="white"/>
</svg>
