<svg width="70" height="75" viewBox="0 0 70 75" fill="none" xmlns="http://www.w3.org/2000/svg">
<path d="M32.7188 51.7422L29.0625 55.3984V67H18.9023V13H29.0625V42.918L31.0312 40.3867L40.7695 28.9609H52.9688L39.2227 44.8164L54.1641 67H42.4922L32.7188 51.7422Z" fill="black"/>
<path d="M32.7188 51.7422L35.2449 50.124C34.755 49.3591 33.9448 48.8574 33.0417 48.7596C32.1385 48.6618 31.2398 48.9785 30.5974 49.6209L32.7188 51.7422ZM29.0625 55.3984L26.9412 53.2771C26.3786 53.8397 26.0625 54.6028 26.0625 55.3984H29.0625ZM29.0625 67V70C30.7194 70 32.0625 68.6569 32.0625 67H29.0625ZM18.9023 67H15.9023C15.9023 68.6569 17.2455 70 18.9023 70V67ZM18.9023 13V10C17.2455 10 15.9023 11.3431 15.9023 13H18.9023ZM29.0625 13H32.0625C32.0625 11.3431 30.7194 10 29.0625 10V13ZM29.0625 42.918H26.0625C26.0625 44.1996 26.8766 45.3397 28.0889 45.7556C29.3011 46.1715 30.6437 45.7714 31.4306 44.7598L29.0625 42.918ZM31.0312 40.3867L28.748 38.4407C28.719 38.4748 28.6907 38.5095 28.6632 38.5449L31.0312 40.3867ZM40.7695 28.9609V25.9609C39.8908 25.9609 39.0563 26.3462 38.4863 27.0149L40.7695 28.9609ZM52.9688 28.9609L55.2355 30.9261C56.0049 30.0386 56.1856 28.7836 55.6978 27.715C55.21 26.6465 54.1434 25.9609 52.9688 25.9609V28.9609ZM39.2227 44.8164L36.9559 42.8512C36.0679 43.8755 35.9771 45.368 36.7344 46.4923L39.2227 44.8164ZM54.1641 67V70C55.273 70 56.2915 69.3883 56.8124 68.4093C57.3334 67.4303 57.2718 66.2439 56.6523 65.3241L54.1641 67ZM42.4922 67L39.966 68.6182C40.5175 69.4792 41.4697 70 42.4922 70V67ZM30.5974 49.6209L26.9412 53.2771L31.1838 57.5198L34.8401 53.8635L30.5974 49.6209ZM26.0625 55.3984V67H32.0625V55.3984H26.0625ZM29.0625 64H18.9023V70H29.0625V64ZM21.9023 67V13H15.9023V67H21.9023ZM18.9023 16H29.0625V10H18.9023V16ZM26.0625 13V42.918H32.0625V13H26.0625ZM31.4306 44.7598L33.3993 42.2285L28.6632 38.5449L26.6944 41.0761L31.4306 44.7598ZM33.3145 42.3327L43.0527 30.9069L38.4863 27.0149L28.748 38.4407L33.3145 42.3327ZM40.7695 31.9609H52.9688V25.9609H40.7695V31.9609ZM50.702 26.9958L36.9559 42.8512L41.4894 46.7816L55.2355 30.9261L50.702 26.9958ZM36.7344 46.4923L51.6758 68.6759L56.6523 65.3241L41.7109 43.1405L36.7344 46.4923ZM54.1641 64H42.4922V70H54.1641V64ZM45.0184 65.3818L35.2449 50.124L30.1926 53.3603L39.966 68.6182L45.0184 65.3818Z" fill="white"/>
</svg>
