<svg width="62" height="62" viewBox="0 0 62 62" fill="none" xmlns="http://www.w3.org/2000/svg">
<path d="M34.345 18.6636L26.1602 28.2668V4C26.1602 2.89543 25.2647 2 24.1602 2H14C12.8954 2 12 2.89543 12 4V58C12 59.1046 12.8954 60 14 60H24.1602C25.2647 60 26.1602 59.1046 26.1602 58V47.2269L27.473 45.914L35.9057 59.0788C36.2734 59.6528 36.9082 60 37.5898 60H49.2617C50.001 60 50.68 59.5922 51.0273 58.9395C51.3746 58.2869 51.3335 57.4959 50.9205 56.8827L36.8347 35.9694L49.5776 21.2711C50.0905 20.6794 50.211 19.8427 49.8858 19.1303C49.5606 18.418 48.8495 17.9609 48.0664 17.9609H35.8672C35.2814 17.9609 34.725 18.2178 34.345 18.6636Z" fill="white" stroke="black" stroke-width="4" stroke-linejoin="round"/>
</svg>
