<svg width="82" height="81" viewBox="0 0 82 81" fill="none" xmlns="http://www.w3.org/2000/svg">
<path d="M59.7188 56.7422L56.0625 60.3984V72H45.9023V18H56.0625V47.918L58.0312 45.3867L67.7695 33.9609H79.9688L66.2227 49.8164L81.1641 72H69.4922L59.7188 56.7422Z" fill="black"/>
<path d="M7.70137 54.32C6.94823 54.0191 6.1444 53.8652 5.33335 53.8667H1.06665V58.1334C1.06665 59.8308 1.74094 61.4587 2.94118 62.6589C4.14142 63.8592 5.7693 64.5335 7.4667 64.5335H9.27871L7.70137 54.32Z" fill="#E0E0DE"/>
<path d="M33.5443 61.5839L33.859 63.1599L34.1337 64.5333L34.5937 65.2226L38.4004 70.9333H43.7337H45.8671L39.467 61.3333L33.5443 61.5839Z" fill="#C7C7C5"/>
<path d="M47.6297 11.0276C47.3802 10.4456 46.9654 9.94968 46.4368 9.60117C45.9082 9.25266 45.2889 9.06689 44.6557 9.06689C44.0225 9.06689 43.4033 9.25266 42.8746 9.60117C42.346 9.94968 41.9312 10.4456 41.6817 11.0276C41.259 12.0128 40.9265 13.0343 40.6884 14.0796L41.6004 25.0663L47.9351 24.749L48.5364 22.3437C49.4786 18.5739 49.1601 14.5993 47.6297 11.0276V11.0276Z" fill="#D6D6D4"/>
<path d="M48.0004 66.6666H46.9337L45.867 64.5332V52.7998L37.3336 53.8665L39.467 64.5332L43.7337 70.9333H51.2004V69.8666C51.2004 69.0179 50.8632 68.204 50.2631 67.6038C49.663 67.0037 48.8491 66.6666 48.0004 66.6666V66.6666Z" fill="#DBDBD9"/>
<path d="M56.5337 33.6557C56.546 34.4845 56.3933 35.3075 56.0844 36.0767C55.7756 36.8459 55.3169 37.546 54.735 38.1363C54.153 38.7265 53.4595 39.1952 52.6947 39.5148C51.93 39.8345 51.1092 39.9989 50.2803 39.9984H50.1337V47.4651C50.1347 49.28 49.7555 51.0749 49.0207 52.7344C48.2858 54.3938 47.2115 55.8809 45.867 57.0999L31.6482 67.3426C31.8804 67.7933 32.0011 68.293 32.0002 68.8V70.9333H14.9334V70.932H12.8001L10.212 66.2106C9.86669 65.6533 9.55558 65.0937 9.27869 64.5319C8.1192 62.2306 7.4995 59.6953 7.46668 57.1186C7.44185 53.5043 8.67698 49.9943 10.9597 47.192C13.2425 44.3898 16.4302 42.4703 19.9748 41.7638L28.8002 39.9984L37.3336 35.7317V31.3677C37.3317 29.8282 37.8141 28.3272 38.7123 27.077L35.6242 23.0303C33.2737 19.9493 32.0004 16.1814 32.0002 12.3062C31.9988 11.5882 32.2362 10.8902 32.675 10.322C33.1139 9.75378 33.7292 9.34764 34.4242 9.16751C34.9686 9.03222 35.5385 9.03826 36.0798 9.18503C36.6212 9.33181 37.1161 9.61446 37.5176 10.0062C38.7674 11.2016 39.8356 12.5735 40.6883 14.0782C40.689 14.0789 40.6895 14.0799 40.6896 14.0809C41.7288 15.9107 42.4344 17.9108 42.7736 19.9876L43.447 24.1076C44.9724 23.8411 46.5431 24.0647 47.9337 24.7463H47.935V24.7476C48.2309 24.8902 48.5165 25.0533 48.7897 25.2356L53.663 28.4837C54.5243 29.0491 55.2355 29.8152 55.7355 30.716C56.2356 31.6169 56.5095 32.6257 56.5337 33.6557V33.6557Z" fill="#E0E0DE"/>
<path d="M50.1337 41.8757V47.4651C50.1347 49.28 49.7555 51.0749 49.0207 52.7343C48.2858 54.3938 47.2115 55.8809 45.867 57.0999L39.9243 61.3812L38.0216 62.7506L31.6482 67.3426C31.8804 67.7932 32.0011 68.293 32.0002 68.7999V70.9333H14.9334V70.932H12.8L10.212 66.2106C9.86669 65.6533 9.55558 65.0937 9.27869 64.5319C8.1192 62.2306 7.4995 59.6952 7.46667 57.1185C24.2455 55.6678 38.9243 51.0091 50.1337 41.8757Z" fill="#DBDBD9"/>
<path d="M51.2004 47.4666V41.0097C52.9862 40.7829 54.626 39.9063 55.8065 38.5473C56.987 37.1883 57.6257 35.4421 57.6005 33.6421C57.5747 32.4387 57.2567 31.2597 56.6739 30.2067C56.091 29.1536 55.2608 28.2581 54.2548 27.5973L49.3804 24.3489C49.3103 24.3023 49.2396 24.2572 49.1685 24.2129L49.5712 22.6025C50.57 18.6062 50.2323 14.3927 48.6097 10.6065C48.2779 9.83289 47.7264 9.17357 47.0236 8.71026C46.3207 8.24695 45.4974 8 44.6556 8C43.8138 8 42.9905 8.24695 42.2877 8.71026C41.5848 9.17357 41.0333 9.83289 40.7015 10.6065C40.5651 10.9241 40.4377 11.2464 40.3194 11.5732C39.6976 10.7384 39.0073 9.95692 38.2555 9.23693C37.7213 8.72078 37.0645 8.34899 36.3471 8.15652C35.6296 7.96404 34.875 7.95721 34.1541 8.13666C33.2314 8.37738 32.4146 8.91748 31.8318 9.6723C31.2489 10.4271 30.933 11.354 30.9336 12.3076C30.9337 16.4167 32.2839 20.412 34.7763 23.6789L37.4095 27.1295C36.6585 28.416 36.2641 29.8794 36.267 31.3691V35.0739L28.4509 38.9818L19.7656 40.7198C16.6829 41.3364 13.8381 42.8141 11.561 44.9817C9.28397 47.1493 7.66799 49.918 6.90045 52.9666C6.38543 52.856 5.86015 52.8001 5.33338 52.7999H1.06668C0.783775 52.7999 0.512462 52.9123 0.312422 53.1124C0.112382 53.3124 0 53.5837 0 53.8666V58.1333C0.00222332 60.1129 0.789608 62.0108 2.18941 63.4106C3.58921 64.8104 5.48711 65.5978 7.46673 65.6H8.62967C8.83687 65.9867 9.05634 66.3718 9.29021 66.7494L11.8648 71.4462C11.9567 71.6139 12.092 71.7538 12.2566 71.8512C12.4211 71.9487 12.6089 72.0001 12.8001 72.0001H32.0003C32.2832 72.0001 32.5545 71.8877 32.7545 71.6877C32.9545 71.4876 33.0669 71.2163 33.0669 70.9334V68.8001C33.0657 67.9008 32.7809 67.0248 32.253 66.2969C31.725 65.5689 30.9809 65.026 30.1265 64.7455L30.6626 63.316L32.7117 62.8616L33.0876 64.7426C33.1149 64.8793 33.1689 65.0094 33.2464 65.1254L37.5131 71.5254C37.6105 71.6714 37.7425 71.7911 37.8972 71.8739C38.052 71.9567 38.2248 72.0001 38.4003 72.0001H51.2004C51.4833 72.0001 51.7546 71.8877 51.9547 71.6877C52.1547 71.4876 52.2671 71.2163 52.2671 70.9334V69.8667C52.2658 68.7355 51.8159 67.651 51.016 66.8511C50.2161 66.0512 49.1316 65.6013 48.0004 65.6H47.5929L46.9337 64.2815V57.5614C48.2824 56.2485 49.3547 54.679 50.0875 52.9453C50.8202 51.2116 51.1986 49.3488 51.2004 47.4666ZM42.6625 11.4468C42.83 11.057 43.1081 10.7248 43.4625 10.4915C43.8169 10.2581 44.2319 10.1338 44.6562 10.1339C45.0805 10.1341 45.4954 10.2586 45.8496 10.4921C46.2039 10.7257 46.4819 11.058 46.6492 11.4479C48.0876 14.8053 48.3869 18.5414 47.5013 22.085L47.194 23.3141C46.3873 23.0634 45.5477 22.935 44.703 22.933C44.5814 22.933 44.4594 22.9358 44.337 22.9413L43.8263 19.8171C43.4911 17.7558 42.8138 15.765 41.8225 13.9268C42.0371 13.0794 42.318 12.2502 42.6625 11.4468V11.4468ZM2.13335 58.1333V54.9333H5.33338C5.73196 54.9334 6.12928 54.9781 6.51792 55.0666C6.19736 57.9168 6.58486 60.8021 7.64606 63.4667H7.46673C6.05271 63.4651 4.69707 62.9027 3.69721 61.9028C2.69736 60.903 2.13494 59.5473 2.13335 58.1333ZM35.1381 64.117L34.7949 62.4L37.8183 61.7296L38.421 64.743C38.4483 64.8796 38.5022 65.0096 38.5795 65.1255L41.7406 69.8667H38.9712L35.1381 64.117ZM48.0004 67.7334C48.566 67.7341 49.1082 67.959 49.5081 68.359C49.9081 68.7589 50.1331 69.3011 50.1337 69.8667H44.3045L40.4715 64.1172L38.3796 53.6574L36.2876 54.0758L37.3999 59.6368L29.6358 61.3587C29.4625 61.3971 29.3015 61.4782 29.1674 61.5946C29.0334 61.7111 28.9305 61.8591 28.8681 62.0253L27.9277 64.5334H25.6099C25.909 62.1972 25.4103 59.8285 24.1946 57.8113C22.979 55.7941 21.1177 54.2465 18.9124 53.4195L17.4413 52.8679L16.6923 54.8653L18.1633 55.417C19.938 56.0825 21.4321 57.334 22.3986 58.9643C23.365 60.5947 23.7457 62.5062 23.4777 64.3824C23.4705 64.4324 23.4668 64.4829 23.4669 64.5334V65.6C23.4669 65.8829 23.5792 66.1543 23.7793 66.3543C23.9793 66.5543 24.2506 66.6667 24.5335 66.6667H28.8002C29.3658 66.6674 29.9081 66.8924 30.308 67.2923C30.7079 67.6922 30.9329 68.2345 30.9336 68.8001V69.8667H13.4318L11.1474 65.6992C11.1384 65.6827 11.1288 65.6663 11.1188 65.6502C10.7962 65.1302 10.4989 64.595 10.2351 64.0612C8.70994 60.9716 8.19713 57.6669 8.75194 54.5046C9.25941 51.6314 10.6221 48.9783 12.6617 46.892C14.7013 44.8057 17.3231 43.3835 20.184 42.8112L29.0094 41.0458C29.1024 41.0273 29.1925 40.9963 29.2773 40.9538L37.8107 36.6871C37.9879 36.5986 38.1369 36.4624 38.241 36.2939C38.3451 36.1254 38.4003 35.9312 38.4003 35.7331V31.3691C38.3979 30.0525 38.8104 28.7686 39.5792 27.6997C39.7123 27.5141 39.7823 27.2907 39.7789 27.0624C39.7755 26.834 39.6989 26.6128 39.5603 26.4312L36.472 22.3844C34.2633 19.4889 33.0669 15.948 33.0669 12.3063C33.0669 11.8248 33.2267 11.3569 33.5213 10.976C33.8158 10.5951 34.2284 10.3227 34.6944 10.2015C35.0626 10.113 35.4473 10.1196 35.8123 10.2207C36.1772 10.3218 36.5105 10.5141 36.7807 10.7795C37.951 11.8988 38.9519 13.1827 39.7516 14.5908C39.755 14.5972 39.7586 14.6034 39.762 14.6096C40.7399 16.3292 41.4032 18.2093 41.721 20.1617L42.3943 24.2817C42.4171 24.4208 42.4671 24.554 42.5416 24.6737C42.6161 24.7933 42.7136 24.897 42.8284 24.9787C42.9433 25.0605 43.0731 25.1187 43.2106 25.1499C43.348 25.1811 43.4903 25.1848 43.6291 25.1608C44.9226 24.9344 46.2546 25.1205 47.4365 25.6927C47.4488 25.6992 47.4613 25.706 47.474 25.7116C47.7247 25.8324 47.9666 25.9705 48.1981 26.1249L53.071 29.3724C53.7889 29.8411 54.3822 30.4774 54.7996 31.2263C55.217 31.9753 55.4461 32.8145 55.4671 33.6717C55.477 34.3591 55.3502 35.0416 55.094 35.6795C54.8378 36.3174 54.4573 36.8981 53.9747 37.3877C53.492 37.8772 52.9169 38.266 52.2827 38.5313C51.6485 38.7966 50.9679 38.9332 50.2804 38.9332H50.1337C49.8508 38.9332 49.5795 39.0455 49.3795 39.2456C49.1794 39.4456 49.0671 39.7169 49.0671 39.9998V47.4666C49.0648 49.9003 48.3206 52.2755 46.9337 54.2754V52.7999H44.8004V64.5334C44.8003 64.699 44.8389 64.8623 44.913 65.0104L45.9797 67.1438C46.0683 67.321 46.2045 67.4699 46.373 67.5741C46.5415 67.6782 46.7356 67.7334 46.9337 67.7334H48.0004Z" fill="black"/>
<path d="M46.9336 33.5997C48.1119 33.5997 49.067 32.6446 49.067 31.4664C49.067 30.2881 48.1119 29.333 46.9336 29.333C45.7554 29.333 44.8003 30.2881 44.8003 31.4664C44.8003 32.6446 45.7554 33.5997 46.9336 33.5997Z" fill="black"/>
</svg>
