<?xml version="1.0"?>
<svg xmlns="http://www.w3.org/2000/svg" viewBox="0 0 512 512" width="512" height="512"><g id="Filled_outline" data-name="Filled outline"><path d="M97.76,363.4A47.62,47.62,0,0,0,80,360H48v32a48,48,0,0,0,48,48h13.59Z" style="fill:#e0e0de"/><polygon points="291.58 417.88 293.94 429.7 296 440 299.45 445.17 328 488 368 488 384 488 336 416 291.58 417.88" style="fill:#c7c7c5"/><path d="M397.22,38.71a24.269,24.269,0,0,0-44.61,0,133,133,0,0,0-7.45,22.89L352,144l47.51-2.38,4.51-18.04a133.379,133.379,0,0,0-6.8-84.87Z" style="fill:#d6d6d4"/><path d="M400,456h-8l-8-16V352l-64,8,16,80,32,48h56v-8A24,24,0,0,0,400,456Z" style="fill:#dbdbd9"/><path d="M464,208.42a46.877,46.877,0,0,1-46.9,47.57H416v56a97.464,97.464,0,0,1-32,72.26L277.36,461.07A23.775,23.775,0,0,1,280,472v16H152v-.01H136l-19.41-35.41q-3.885-6.27-7-12.59A127.169,127.169,0,0,1,96,384.39a116.609,116.609,0,0,1,93.81-115.16L256,255.99l64-32V191.26a55.042,55.042,0,0,1,10.34-32.18l-23.16-30.35A132.611,132.611,0,0,1,280,48.3a24.269,24.269,0,0,1,18.18-23.54,24.693,24.693,0,0,1,23.2,6.29,132.974,132.974,0,0,1,23.78,30.54.035.035,0,0,1,.01.02,133.179,133.179,0,0,1,15.63,44.3l5.05,30.9a54.963,54.963,0,0,1,33.65,4.79h.01v.01a52.922,52.922,0,0,1,6.41,3.66l36.55,24.36A47.748,47.748,0,0,1,464,208.42Z" style="fill:#e0e0de"/><path d="M416,270.07v41.92a97.464,97.464,0,0,1-32,72.26l-44.57,32.11-14.27,10.27-47.8,34.44A23.775,23.775,0,0,1,280,472v16H152v-.01H136l-19.41-35.41q-3.885-6.27-7-12.59A127.169,127.169,0,0,1,96,384.39C221.84,373.51,331.93,338.57,416,270.07Z" style="fill:#dbdbd9"/><path d="M424,312V263.574a54.925,54.925,0,0,0,48-55.257,55.665,55.665,0,0,0-25.092-45.335L410.35,138.619c-.526-.35-1.056-.688-1.589-1.02l3.02-12.078a141.377,141.377,0,0,0-7.211-89.969,32.268,32.268,0,0,0-59.311,0q-1.535,3.573-2.866,7.25a140.3,140.3,0,0,0-15.479-17.522,32.849,32.849,0,0,0-30.76-8.252A32.31,32.31,0,0,0,272,48.31a140.612,140.612,0,0,0,28.82,85.284l19.749,25.879A62.829,62.829,0,0,0,312,191.27v27.786l-58.62,29.309L188.241,261.4A124.722,124.722,0,0,0,91.753,353.25,56.049,56.049,0,0,0,80,352H48a8,8,0,0,0-8,8v32a56.063,56.063,0,0,0,56,56h8.722c1.554,2.9,3.2,5.788,4.954,8.62l19.309,35.226A8,8,0,0,0,136,496H280a8,8,0,0,0,8-8V472a32.051,32.051,0,0,0-22.053-30.409l4.021-10.721,15.368-3.408,2.819,14.107a7.987,7.987,0,0,0,1.191,2.871l32,48A8,8,0,0,0,328,496h96a8,8,0,0,0,8-8v-8a32.036,32.036,0,0,0-32-32h-3.056L392,438.111v-50.4A105.8,105.8,0,0,0,424,312ZM359.966,41.854a16.27,16.27,0,0,1,29.9.008,125.388,125.388,0,0,1,6.391,79.778l-2.305,9.218A63.436,63.436,0,0,0,375.27,128q-1.368,0-2.745.062l-3.83-23.431a140.625,140.625,0,0,0-15.029-44.177A125.211,125.211,0,0,1,359.966,41.854ZM56,392V368H80a40.052,40.052,0,0,1,8.884,1,130.771,130.771,0,0,0,8.461,63H96A40.045,40.045,0,0,1,56,392Zm247.534,44.877L300.96,424l22.675-5.028,4.52,22.6a8,8,0,0,0,1.189,2.869L353.052,480h-20.77ZM400,464a16.019,16.019,0,0,1,16,16H372.281l-28.747-43.121-15.689-78.448-15.69,3.138,8.342,41.707-58.23,12.914a8,8,0,0,0-5.758,5L249.456,440H232.073a78.391,78.391,0,0,0-50.231-83.353l-11.033-4.137-5.618,14.98,11.033,4.138a62.389,62.389,0,0,1,39.857,67.24A7.939,7.939,0,0,0,216,440v8a8,8,0,0,0,8,8h32a16.019,16.019,0,0,1,16,16v8H140.738l-17.133-31.256c-.068-.124-.14-.247-.215-.368-2.419-3.9-4.649-7.914-6.627-11.917-11.439-23.172-15.285-47.957-11.124-71.674a108.722,108.722,0,0,1,85.74-87.7l66.19-13.24a7.975,7.975,0,0,0,2.009-.69l64-32A8,8,0,0,0,328,224V191.27a46.979,46.979,0,0,1,8.842-27.52,8,8,0,0,0-.142-9.514l-23.162-30.351A124.62,124.62,0,0,1,288,48.3a16.311,16.311,0,0,1,12.206-15.786,16.747,16.747,0,0,1,15.647,4.335,124.929,124.929,0,0,1,22.282,28.585c.025.048.052.094.078.141a124.784,124.784,0,0,1,14.692,41.64l5.05,30.9a8,8,0,0,0,9.261,6.593,46.955,46.955,0,0,1,28.555,3.989c.092.049.186.1.281.142a44.872,44.872,0,0,1,5.431,3.1l36.546,24.356A39.666,39.666,0,0,1,456,208.539,38.9,38.9,0,0,1,417.1,248H416a8,8,0,0,0-8,8v56a89.757,89.757,0,0,1-16,51.066V352H376v88a7.994,7.994,0,0,0,.845,3.578l8,16A8,8,0,0,0,392,464Z"/><circle cx="392" cy="192" r="16"/></g></svg>
